HIERARCHY
ROOT SpineBase
{
  OFFSET 0.000000 0.000000 0.000000
  CHANNELS 6 Xposition Yposition Zposition Zrotation Xrotation Yrotation
  JOINT SpineMid
  {
    OFFSET 0.000000 28.475081 0.000000
    CHANNELS 3 Zrotation Xrotation Yrotation
    JOINT SpineShoulder
    {
      OFFSET -0.291747 21.287728 -0.718944
      CHANNELS 3 Zrotation Xrotation Yrotation
      JOINT Neck
      {
        OFFSET -0.212763 7.092621 -0.531882
        CHANNELS 3 Zrotation Xrotation Yrotation
        JOINT Head
        {
          OFFSET -3.685071 10.465417 -1.288681
          CHANNELS 3 Zrotation Xrotation Yrotation
          End Site
          {
            OFFSET 0 0 0
          }
        }
      }
      JOINT ShoulderLeft
      {
        OFFSET -12.732653 -2.306870 10.295047
        CHANNELS 3 Zrotation Xrotation Yrotation
        JOINT ElbowLeft
        {
          OFFSET -1.144233 -26.656536 4.364482
          CHANNELS 3 Zrotation Xrotation Yrotation
          JOINT WristLeft
          {
            OFFSET -2.670064 -22.231873 -5.753053
            CHANNELS 3 Zrotation Xrotation Yrotation
            JOINT HandLeft
            {
              OFFSET 0.202119 -3.862238 -1.697494
              CHANNELS 3 Zrotation Xrotation Yrotation
              JOINT HandTipLeft
              {
                OFFSET 0.638783 -6.127975 -2.549782
                CHANNELS 3 Zrotation Xrotation Yrotation
                End Site
                {
                  OFFSET 0 0 0
                }
              }
              JOINT ThumbLeft
              {
                OFFSET 1.127515 1.243352 -5.269672
                CHANNELS 3 Zrotation Xrotation Yrotation
                End Site
                {
                  OFFSET 0 0 0
                }
              }
            }
          }
        }
      }
      JOINT ShoulderRight
      {
        OFFSET 10.828467 -0.864274 -10.646590
        CHANNELS 3 Zrotation Xrotation Yrotation
        JOINT ElbowRight
        {
          OFFSET 6.788850 -24.300390 -2.965471
          CHANNELS 3 Zrotation Xrotation Yrotation
          JOINT WristRight
          {
            OFFSET -1.909159 -19.611728 -5.152211
            CHANNELS 3 Zrotation Xrotation Yrotation
            JOINT HandRight
            {
              OFFSET -2.099150 -4.000093 -0.154237
              CHANNELS 3 Zrotation Xrotation Yrotation
              JOINT HandTipRight
              {
                OFFSET -0.609343 -7.975040 -1.087995
                CHANNELS 3 Zrotation Xrotation Yrotation
                End Site
                {
                  OFFSET 0 0 0
                }
              }
              JOINT ThumbRight
              {
                OFFSET -3.531820 1.500960 0.279754
                CHANNELS 3 Zrotation Xrotation Yrotation
                End Site
                {
                  OFFSET 0 0 0
                }
              }
            }
          }
        }
      }
    }
  }
  JOINT HipLeft
  {
    OFFSET -5.937777 0.726092 0.411419
    CHANNELS 3 Zrotation Xrotation Yrotation
    JOINT KneeLeft
    {
      OFFSET 1.184043 -27.117070 4.683239
      CHANNELS 3 Zrotation Xrotation Yrotation
      JOINT AnkleLeft
      {
        OFFSET 3.029341 -35.271171 9.074623
        CHANNELS 3 Zrotation Xrotation Yrotation
        JOINT FootLeft
        {
          OFFSET -3.734623 -7.552967 1.976327
          CHANNELS 3 Zrotation Xrotation Yrotation
          End Site
          {
            OFFSET 0 0 0
          }
        }
      }
    }
  }
  JOINT HipRight
  {
    OFFSET 3.476651 1.727699 -6.400028
    CHANNELS 3 Zrotation Xrotation Yrotation
    JOINT KneeRight
    {
      OFFSET 11.076708 -26.888299 -4.019255
      CHANNELS 3 Zrotation Xrotation Yrotation
      JOINT AnkleRight
      {
        OFFSET 10.378372 -34.291252 2.864794
        CHANNELS 3 Zrotation Xrotation Yrotation
        JOINT FootRight
        {
          OFFSET -2.064960 -6.488508 -6.707236
          CHANNELS 3 Zrotation Xrotation Yrotation
          End Site
          {
            OFFSET 0 0 0
          }
        }
      }
    }
  }
}
MOTION
Frames: 8
Frame Time: 0.033333
120.890373 69.215116 295.141022 -0.000000 0.000000 35.886170 -0.000000 0.000000 -35.886170 -0.000000 0.000000 0.000000 -0.000000 0.000000 0.000000 0.000000 0.000000 0.000000 -0.000000 0.000000 0.000000 -0.000000 0.000000 0.000000 -0.000000 0.000000 0.000000 -0.000000 0.000000 0.000000 0.000000 0.000000 0.000000 0.000000 0.000000 0.000000 -0.000000 0.000000 0.000000 -0.000000 0.000000 0.000000 -0.000000 0.000000 0.000000 -0.000000 0.000000 0.000000 0.000000 0.000000 0.000000 0.000000 0.000000 0.000000 -0.000000 0.000000 -35.886170 -0.000000 0.000000 0.000000 -0.000000 0.000000 0.000000 0.000000 0.000000 0.000000 -0.000000 0.000000 -35.886170 -0.000000 0.000000 0.000000 -0.000000 0.000000 0.000000 0.000000 0.000000 0.000000
120.845116 69.243180 295.111514 -0.076508 0.044190 35.963393 0.035974 -0.080698 -35.963338 -0.000000 0.000000 0.000000 -0.000000 0.000000 0.000000 0.000000 0.000000 0.000000 -0.000000 0.000000 0.000000 -0.000000 0.000000 0.000000 0.867008 -1.247682 -0.438846 0.408280 0.692592 -0.155441 0.000000 0.000000 0.000000 0.000000 0.000000 0.000000 -0.000000 0.000000 0.000000 -0.000000 0.000000 0.000000 0.124695 -1.456503 0.761953 -0.105351 1.458030 -0.759027 0.000000 0.000000 0.000000 0.000000 0.000000 0.000000 0.035974 -0.080698 -35.963338 -0.000000 0.000000 0.000000 -6.593002 16.111623 -8.870581 0.000000 0.000000 0.000000 0.035974 -0.080698 -35.963338 -0.000000 0.000000 0.000000 -0.000000 0.000000 0.000000 0.000000 0.000000 0.000000
120.801113 69.266518 295.091711 -0.144715 0.086946 36.048492 0.065840 -0.155458 -36.048293 -0.000000 0.000000 0.000000 -0.000000 0.000000 0.000000 0.000000 0.000000 0.000000 -0.000000 0.000000 0.000000 -0.000000 0.000000 0.000000 1.392537 -2.313486 -0.710879 0.718256 1.175158 -0.303512 0.000000 0.000000 0.000000 0.000000 0.000000 0.000000 -0.000000 0.000000 0.000000 -0.000000 0.000000 0.000000 0.335027 -2.771318 1.453297 -1.210175 3.747705 -1.325324 0.000000 0.000000 0.000000 0.000000 0.000000 0.000000 0.065840 -0.155458 -36.048293 -0.000000 0.000000 0.000000 -10.432195 30.010407 -15.414943 0.000000 0.000000 0.000000 0.065840 -0.155458 -36.048293 -0.000000 0.000000 0.000000 -0.537499 -0.239369 0.631092 0.000000 0.000000 0.000000
120.758363 69.285130 295.081614 -0.204604 0.128262 36.141388 0.089586 -0.224251 -36.140984 -0.000000 0.000000 0.000000 -0.000000 0.000000 0.000000 0.000000 0.000000 0.000000 -0.000000 0.000000 0.000000 -0.000000 0.000000 0.000000 1.615988 -3.226627 -0.843478 1.056393 1.448521 -0.488027 0.000000 0.000000 0.000000 0.000000 0.000000 0.000000 -0.000000 0.000000 0.000000 -0.000000 0.000000 0.000000 0.625698 -3.935679 2.071990 -1.918425 5.445369 -1.824568 0.000000 0.000000 0.000000 0.000000 0.000000 0.000000 0.089586 -0.224251 -36.140984 -0.000000 0.000000 0.000000 -12.176194 39.496827 -19.775997 0.000000 0.000000 0.000000 0.089586 -0.224251 -36.140984 -0.000000 0.000000 0.000000 -0.721385 -0.203231 0.808960 0.000000 0.000000 0.000000
120.716867 69.299016 295.081222 -0.256161 0.168131 36.241989 0.107204 -0.287043 -36.241345 -0.000000 0.000000 0.000000 -0.000000 0.000000 0.000000 0.000000 0.000000 0.000000 -0.000000 0.000000 0.000000 -0.000000 0.000000 0.000000 1.560839 -4.010983 -0.853895 1.484341 1.506398 -0.733642 0.000000 0.000000 0.000000 0.000000 0.000000 0.000000 -0.000000 0.000000 0.000000 -0.137566 0.900148 -0.050299 1.135575 -5.842178 2.684398 -2.700041 7.009463 -2.213102 0.000000 0.000000 0.000000 0.000000 0.000000 0.000000 0.107204 -0.287043 -36.241345 -0.000000 0.000000 0.000000 -12.772010 45.035883 -22.445938 0.000000 0.000000 0.000000 0.107204 -0.287043 -36.241345 -0.000000 0.000000 0.000000 -0.849267 -0.062518 0.895719 0.000000 0.000000 0.000000
120.676625 69.308176 295.090535 -0.299372 0.206549 36.350193 0.118695 -0.343799 -36.349297 -0.000000 0.000000 0.000000 -0.000000 0.000000 0.000000 0.000000 0.000000 0.000000 -0.000000 0.000000 0.000000 -0.000000 0.000000 0.000000 1.237597 -4.686066 -0.751771 2.034745 1.330415 -1.057153 0.000000 0.000000 0.000000 0.000000 0.000000 0.000000 -0.000000 0.000000 0.000000 -0.149540 0.981275 -0.054831 1.584940 -6.769058 3.165760 -3.556755 8.429098 -2.491932 0.000000 0.000000 0.000000 0.000000 0.000000 0.000000 0.118695 -0.343799 -36.349297 -0.000000 0.000000 0.000000 -12.828512 47.531402 -23.738767 0.000000 0.000000 0.000000 0.118695 -0.343799 -36.349297 -0.000000 0.000000 0.000000 -0.921115 0.182659 0.891755 0.000000 0.000000 0.000000
120.641149 69.315812 295.117702 -0.339282 0.247772 36.499712 0.125360 -0.400984 -36.498540 -0.000000 0.000000 0.000000 -0.000000 0.000000 0.000000 0.000000 0.000000 0.000000 -0.000000 0.000000 0.000000 -0.000000 0.000000 0.000000 -0.235690 -5.678484 -0.210114 3.828623 0.303166 -2.096021 0.000000 0.000000 0.000000 0.000000 0.000000 0.000000 -0.142022 -0.864818 -0.225637 -0.007878 1.897877 0.164050 2.399754 -7.443673 3.556142 -5.477575 9.775933 -2.430609 0.000000 0.000000 0.000000 0.000000 0.000000 0.000000 0.125360 -0.400984 -36.498540 -0.000000 0.000000 0.000000 -12.826775 49.036558 -24.546165 0.000000 0.000000 0.000000 0.125360 -0.400984 -36.498540 -0.000000 0.000000 0.000000 -0.840799 0.735917 0.634648 0.000000 0.000000 0.000000
120.603352 69.311583 295.163545 -0.369979 0.285247 36.668423 0.126424 -0.449740 -36.667006 -0.000000 0.000000 0.000000 -0.000000 0.000000 0.000000 0.000000 0.000000 0.000000 -0.000000 0.000000 0.000000 -0.533978 -0.618266 0.209730 -0.159151 -5.718980 -0.284894 3.807238 0.267021 -2.160613 0.000000 0.000000 0.000000 0.000000 0.000000 0.000000 -0.123832 -0.964331 -0.255683 -0.009462 1.997538 0.189224 2.774173 -8.016907 3.901625 -6.354905 10.708392 -2.508213 0.000000 0.000000 0.000000 0.000000 0.000000 0.000000 0.126424 -0.449740 -36.667006 -0.000000 0.000000 0.000000 -12.580450 47.451429 -23.768374 0.000000 0.000000 0.000000 0.126424 -0.449740 -36.667006 -0.000000 0.000000 0.000000 -0.902210 1.332923 0.511482 0.000000 0.000000 0.000000
